<svg height="496pt" viewBox="0 0 496 496" width="496pt" xmlns="http://www.w3.org/2000/svg"><g fill="#8bd2f5"><path d="m488 464c0 13.253906-10.746094 24-24 24s-24-10.746094-24-24 10.746094-24 24-24 24 10.746094 24 24zm0 0"/><path d="m488 336c0 17.671875-14.328125 32-32 32s-32-14.328125-32-32 14.328125-32 32-32 32 14.328125 32 32zm0 0"/><path d="m56 464c0 13.253906-10.746094 24-24 24s-24-10.746094-24-24 10.746094-24 24-24 24 10.746094 24 24zm0 0"/><path d="m72 376c0 17.671875-14.328125 32-32 32s-32-14.328125-32-32 14.328125-32 32-32 32 14.328125 32 32zm0 0"/><path d="m320 248c0 8.835938-7.164062 16-16 16s-16-7.164062-16-16 7.164062-16 16-16 16 7.164062 16 16zm0 0"/><path d="m328 176c0 13.253906-10.746094 24-24 24s-24-10.746094-24-24 10.746094-24 24-24 24 10.746094 24 24zm0 0"/><path d="m408 96c0 17.671875-14.328125 32-32 32s-32-14.328125-32-32 14.328125-32 32-32 32 14.328125 32 32zm0 0"/></g><path d="m112 384v-21.878906c0-32.890625-8.246094-65.25-24-94.121094s-24-61.230469-24-94.121094v-77.878906l30.878906 98.808594c6.015625 19.246094 15.984375 37.03125 29.265625 52.207031 23.113281 26.425781 35.855469 60.335937 35.855469 95.441406v41.542969" fill="#568e53"/><path d="m384 376v-9.351562c0-30.519532 8.296875-60.472657 24-86.648438s24-56.121094 24-86.648438v-41.351562l-30.328125 72.785156c-6.359375 15.261719-16.214844 28.824219-28.777344 39.589844-23.414062 20.074219-36.894531 49.378906-36.894531 80.226562v23.398438" fill="#568e53"/><path d="m216 352v-13.070312c0-44.328126-7.144531-88.371094-21.167969-130.425782-7.175781-21.527344-10.832031-44.070312-10.832031-66.769531 0-30.140625 6.457031-59.933594 18.929688-87.375l15.886718-34.953125c3.160156-6.941406 10.085938-11.40625 17.71875-11.40625 10.753906 0 19.464844 8.710938 19.464844 19.464844v.78125c0 2.480468-.472656 4.929687-1.390625 7.234375l-19.210937 48.015625c-7.527344 18.832031-11.398438 38.917968-11.398438 59.199218 0 27.089844 6.902344 53.730469 20.054688 77.410157 13.082031 23.542969 19.945312 50.023437 19.945312 76.957031v54.9375" fill="#7ecb92"/><path d="m297.335938 474.695312c11.238281 11.3125 31.519531 13.304688 54.664062 13.304688 35.34375 0 64-4.65625 64-40s-28.65625-88-64-88c-19.878906 0-37.648438 16.65625-49.382812 37.527344" fill="#695b52"/><path d="m185.550781 476.785156c-9.390625 10.695313-28.054687 11.214844-49.550781 11.214844-30.929688 0-56-1.070312-56-32s25.070312-80 56-80c15.28125 0 29.128906 11.976562 39.230469 27.824219" fill="#695b52"/><path d="m312 440c0-39.769531-32.230469-96-72-96s-72 56.230469-72 96 32.230469 48 72 48 72-8.230469 72-48zm0 0" fill="#857970"/><path d="m240 496c-21.878906 0-80 0-80-56 0-41.871094 33.59375-104 80-104s80 62.128906 80 104c0 56-58.121094 56-80 56zm0-144c-35.328125 0-64 53.246094-64 88 0 28.414062 18.542969 40 64 40s64-11.585938 64-40c0-34.753906-28.671875-88-64-88zm0 0"/><path d="m352 496c-23.257812 0-46.664062-1.894531-60.335938-15.664062l11.351563-11.28125c9.550781 9.617187 29.183594 10.945312 48.984375 10.945312 41.871094 0 56-8.078125 56-32 0-30.855469-25.632812-80-56-80-14.785156 0-30.640625 12.503906-42.414062 33.457031l-13.945313-7.839843c14.871094-26.449219 35.40625-41.617188 56.359375-41.617188 41.078125 0 72 58.230469 72 96 0 48-46.832031 48-72 48zm0 0"/><path d="m136 496c-28.511719 0-64 0-64-40 0-34.617188 27.488281-88 64-88 16.679688 0 33.007812 11.191406 45.976562 31.511719l-13.496093 8.609375c-9.777344-15.328125-21.617188-24.121094-32.480469-24.121094-25.566406 0-48 44.871094-48 72 0 20.6875 11.398438 24 48 24 20.449219 0 36.632812-.625 43.527344-8.496094l12.03125 10.542969c-12.222656 13.953125-35.246094 13.953125-55.558594 13.953125zm0 0"/><path d="m272 352h-16v-54.9375c0-25.503906-6.542969-50.773438-18.9375-73.070312-13.773438-24.808594-21.0625-52.921876-21.0625-81.296876 0-21.382812 4.023438-42.304687 11.976562-62.167968l19.207032-48.015625c.535156-1.359375.816406-2.800781.816406-4.265625 0-7.101563-5.144531-12.246094-11.464844-12.246094-4.488281 0-8.582031 2.640625-10.4375 6.71875l-15.890625 34.953125c-12.078125 26.585937-18.207031 54.863281-18.207031 84.0625 0 21.875 3.503906 43.488281 10.425781 64.242187 14.316407 42.953126 21.574219 87.6875 21.574219 132.953126v13.070312h-16v-13.070312c0-43.546876-6.984375-86.578126-20.753906-127.898438-7.460938-22.382812-11.246094-45.695312-11.246094-69.296875 0-31.496094 6.609375-62 19.648438-90.679687l15.886718-34.949219c4.441406-9.785157 14.257813-16.105469 25-16.105469 15.144532 0 27.464844 12.320312 27.464844 27.464844 0 4.289062-.664062 7.71875-1.960938 10.984375l-19.207031 48.023437c-7.183593 17.96875-10.832031 36.878906-10.832031 56.222656 0 25.664063 6.59375 51.089844 19.046875 73.519532 13.714844 24.671875 20.953125 52.625 20.953125 80.847656zm0 0"/><path d="m168 384h-16v-41.542969c0-33.167969-12.03125-65.191406-33.878906-90.167969-14.105469-16.113281-24.488282-34.648437-30.882813-55.089843l-15.238281-48.785157v25.464844c0 31.457032 7.960938 62.679688 23.023438 90.296875 16.335937 29.953125 24.976562 63.816407 24.976562 97.945313v21.878906h-16v-21.878906c0-31.457032-7.960938-62.671875-23.023438-90.289063-16.335937-29.953125-24.976562-63.824219-24.976562-97.953125v-77.878906c0-3.953125 2.886719-7.3125 6.792969-7.910156 3.902343-.5625 7.664062 1.75 8.839843 5.519531l30.878907 98.804687c5.71875 18.304688 15.015625 34.898438 27.648437 49.328126 24.398438 27.890624 37.839844 63.65625 37.839844 100.714843zm0 0"/><path d="m392 376h-16v-9.351562c0-31.96875 8.6875-63.351563 25.144531-90.769532 14.953125-24.917968 22.855469-53.464844 22.855469-82.527344v-1.351562l-14.945312 35.855469c-6.808594 16.335937-17.511719 31.066406-30.949219 42.578125-21.671875 18.589844-34.105469 45.621094-34.105469 74.167968v23.398438h-16v-23.398438c0-33.226562 14.472656-64.679687 39.695312-86.304687 11.542969-9.90625 20.746094-22.554687 26.601563-36.59375l30.328125-72.78125c1.464844-3.523437 5.207031-5.488281 8.949219-4.769531 3.738281.75 6.425781 4.03125 6.425781 7.847656v41.351562c0 31.96875-8.6875 63.351563-25.144531 90.769532-14.953125 24.917968-22.855469 53.453125-22.855469 82.527344zm0 0"/><path d="m240 464v-16c27.167969 0 32-4.191406 32-16 0-19.832031-16.550781-48-32-48v-16c27.839844 0 48 38.222656 48 64 0 32-31.222656 32-48 32zm0 0"/><path d="m464 496c-17.648438 0-32-14.351562-32-32s14.351562-32 32-32 32 14.351562 32 32-14.351562 32-32 32zm0-48c-8.824219 0-16 7.175781-16 16s7.175781 16 16 16 16-7.175781 16-16-7.175781-16-16-16zm0 0"/><path d="m456 376c-22.054688 0-40-17.945312-40-40s17.945312-40 40-40 40 17.945312 40 40-17.945312 40-40 40zm0-64c-13.230469 0-24 10.769531-24 24s10.769531 24 24 24 24-10.769531 24-24-10.769531-24-24-24zm0 0"/><path d="m32 496c-17.648438 0-32-14.351562-32-32s14.351562-32 32-32 32 14.351562 32 32-14.351562 32-32 32zm0-48c-8.824219 0-16 7.175781-16 16s7.175781 16 16 16 16-7.175781 16-16-7.175781-16-16-16zm0 0"/><path d="m40 416c-22.054688 0-40-17.945312-40-40s17.945312-40 40-40 40 17.945312 40 40-17.945312 40-40 40zm0-64c-13.230469 0-24 10.769531-24 24s10.769531 24 24 24 24-10.769531 24-24-10.769531-24-24-24zm0 0"/><path d="m304 272c-13.230469 0-24-10.769531-24-24s10.769531-24 24-24 24 10.769531 24 24-10.769531 24-24 24zm0-32c-4.40625 0-8 3.59375-8 8s3.59375 8 8 8 8-3.59375 8-8-3.59375-8-8-8zm0 0"/><path d="m304 208c-17.648438 0-32-14.351562-32-32s14.351562-32 32-32 32 14.351562 32 32-14.351562 32-32 32zm0-48c-8.824219 0-16 7.175781-16 16s7.175781 16 16 16 16-7.175781 16-16-7.175781-16-16-16zm0 0"/><path d="m376 136c-22.054688 0-40-17.945312-40-40s17.945312-40 40-40 40 17.945312 40 40-17.945312 40-40 40zm0-64c-13.230469 0-24 10.769531-24 24s10.769531 24 24 24 24-10.769531 24-24-10.769531-24-24-24zm0 0"/></svg>