<svg height="411pt" viewBox="0 -7 411.75381 411" width="411pt" xmlns="http://www.w3.org/2000/svg"><path d="m260.492188 196.765625c0 69.75-56.546876 126.292969-126.296876 126.292969s-126.292968-56.542969-126.292968-126.292969 56.542968-126.296875 126.292968-126.296875 126.296876 56.546875 126.296876 126.296875zm0 0" fill="#edebdc"/><g fill="#4c241d"><path d="m390.195312 51.0625c-11.886718 0-21.554687-9.664062-21.554687-21.550781s9.667969-21.554688 21.554687-21.554688c11.886719 0 21.558594 9.667969 21.558594 21.554688s-9.671875 21.550781-21.558594 21.550781zm0-29.453125c-4.355468 0-7.902343 3.546875-7.902343 7.902344 0 4.351562 3.546875 7.898437 7.902343 7.898437 4.359376 0 7.90625-3.546875 7.90625-7.898437 0-4.355469-3.546874-7.902344-7.90625-7.902344zm0 0"/><path d="m21.558594 214.902344c-11.886719 0-21.558594-9.664063-21.558594-21.550782 0-11.886718 9.671875-21.554687 21.558594-21.554687 11.886718 0 21.554687 9.667969 21.554687 21.554687 0 11.886719-9.667969 21.550782-21.554687 21.550782zm0-29.453125c-4.359375 0-7.90625 3.546875-7.90625 7.902343 0 4.351563 3.546875 7.898438 7.90625 7.898438 4.355468 0 7.902344-3.546875 7.902344-7.898438 0-4.355468-3.546876-7.902343-7.902344-7.902343zm0 0"/><path d="m38.941406 118.257812c0 5.832032-4.726562 10.558594-10.558594 10.558594-5.832031 0-10.558593-4.726562-10.558593-10.558594 0-5.832031 4.726562-10.558593 10.558593-10.558593 5.832032 0 10.558594 4.726562 10.558594 10.558593zm0 0"/><path d="m387.101562 377.671875c0 5.832031-4.726562 10.558594-10.558593 10.558594s-10.558594-4.726563-10.558594-10.558594 4.726563-10.558594 10.558594-10.558594 10.558593 4.726563 10.558593 10.558594zm0 0"/><path d="m195.957031 29.511719c0 5.832031-4.726562 10.558593-10.558593 10.558593-5.832032 0-10.5625-4.726562-10.5625-10.558593s4.730468-10.558594 10.5625-10.558594c5.832031 0 10.558593 4.726563 10.558593 10.558594zm0 0"/><path d="m9.492188 38.164062c-1.746094 0-3.496094-.667968-4.828126-2-2.664062-2.667968-2.664062-6.988281 0-9.652343l24.132813-24.136719c2.667969-2.664062 6.988281-2.664062 9.65625 0 2.664063 2.667969 2.664063 6.988281 0 9.652344l-24.136719 24.136718c-1.332031 1.332032-3.078125 2-4.824218 2zm0 0"/><path d="m33.621094 38.164062c-1.742188 0-3.492188-.667968-4.824219-2l-24.132813-24.132812c-2.664062-2.667969-2.664062-6.988281 0-9.652344 2.667969-2.667968 6.988282-2.667968 9.652344 0l24.136719 24.132813c2.664063 2.667969 2.664063 6.988281 0 9.652343-1.335937 1.332032-3.082031 2-4.832031 2zm0 0"/></g><path d="m233.183594 391.324219v-15.253907c0-10.160156 8.824218-18.070312 18.925781-16.960937l33.089844 3.632813c16.804687 1.84375 33.699219-2.570313 47.457031-12.394532l21.5625-15.402344c8.945312-6.390624 10.011719-19.28125 2.238281-27.054687-6.242187-6.242187-16.121093-6.960937-23.203125-1.6875l-20.761718 15.457031c-7.167969 5.339844-15.867188 8.222656-24.808594 8.222656h-17.160156c-9.3125 0-16.859376-7.546874-16.859376-16.855468 0-9.835938 5.480469-18.847656 14.210938-23.375l31.683594-16.433594c14.699218-7.625 31.019531-11.601562 47.574218-11.601562h25.996094c9.425782 0 17.066406-7.640626 17.066406-17.066407s-7.640624-17.066406-17.066406-17.066406h-15.171875c-8.585937 0-15.546875-6.960937-15.546875-15.546875 0-5.683594 3.101563-10.914062 8.089844-13.640625l31.191406-17.042969c8.425782-4.605468 11.441406-15.222656 6.699219-23.574218-4.699219-8.261719-15.210937-11.144532-23.464844-6.425782l-25.5 14.570313c-12.539062 7.164062-21.777343 18.949219-25.746093 32.835937l-10.207032 35.722656c-.488281 1.703126-1.527344 3.199219-2.953125 4.246094-5.277343 3.875-12.722656.105469-12.722656-6.441406v-14.941406c0-9.425782-7.640625-17.066406-17.066406-17.066406s-17.066407 7.640624-17.066407 17.066406v22.367187c0 14.488281-7.0625 28.070313-18.925781 36.394531l-2.804687 1.964844c-9.558594 6.703125-16.023438 16.964844-17.941406 28.480469l-5.574219 33.433594-9.835938-49.195313c-4.6875-23.421875-.019531-47.746094 12.996094-67.773437 9.648437-14.839844 14.78125-32.160157 14.78125-49.859375v-4.941406c0-5.699219 2.253906-11.171876 6.261719-15.222657 6.117187-6.171875 15.335937-8.089843 23.40625-4.859375l18.570312 7.425782c6.398438 2.5625 13.714844.289062 17.539063-5.445313 5.332031-8 1.597656-18.875-7.519531-21.914063l-7.613282-2.539062 6.792969-13.585938c6.347656-12.6875 19.316406-20.707031 33.5-20.707031h21.625c9.46875 0 17.144531-7.675781 17.144531-17.144531 0-9.472656-7.675781-17.148438-17.148437-17.148438h-16.988281v-17.226562c0-9.425781-7.640626-17.066406-17.066407-17.066406s-17.066406 7.640625-17.066406 17.066406v9.636719c0 4.824219-2.070313 9.421875-5.679687 12.617187-7.375 6.527344-18.746094 5.371094-24.65625-2.503906l-2.296876-3.066406c-6.574218-8.765625-19.382812-9.671875-27.132812-1.925782-6.332031 6.332032-7.046875 16.363282-1.671875 23.53125l5.132813 6.839844c6.4375 8.582032 5.585937 20.59375-2 28.179688-7.269532 7.269531-18.652344 8.394531-27.203126 2.695312l-22.175781-14.785156c-9.539062-6.359375-17.253906-15.097656-22.382812-25.351562l-9.320313-18.644532c-4.734375-9.46875-16.25-13.308594-25.722656-8.570312-9.46875 4.734375-13.308594 16.25-8.570312 25.71875l17.144531 34.292968-35.511719 10.632813c-8.9375 2.675781-14.238281 11.863281-12.078125 20.941406 2.488281 10.460938 13.695313 16.269531 23.679687 12.265625l28.804688-11.546875c13.554688-5.4375 28.992188-3.152343 40.398438 5.96875 9.90625 7.925781 15.675781 19.925781 15.675781 32.613281 0 9.160157-2.765625 18.105469-7.929688 25.671876l-10.171875 14.902343-8.8125-17.621093c-4.601562-9.210938-15.796875-12.941407-25.003906-8.335938-9.566406 4.785156-13.152344 16.625-7.847656 25.917969l15.144531 26.496093c6.195313 10.839844 10.28125 22.753907 12.046875 35.117188l5.902344 41.300781-22.601563-9.035156c-13.054687-5.222656-23.738281-15.054687-30.027343-27.632813l-2.597657-5.195312c-3.066406-6.128906-3.570312-13.226562-1.402343-19.726562l1.320312-3.960938c2.371094-7.113281.519531-14.953125-4.78125-20.253906l-5-5.003906c-6.242188-6.242188-16.640625-5.210938-21.539062 2.132812-4.238282 6.363281-12.832032 8.078125-19.195313 3.839844l-.5625-.375c-7.535156-5.023438-17.707031-2.988282-22.726563 4.542968-4.597656 6.898438-3.324218 16.140626 2.96875 21.535157l39.222657 33.617187c4.636719 3.972656 3.726562 11.390625-1.734375 14.121094l-18.515625 9.253906c-11.15625 5.578125-14.535157 19.898438-7.050781 29.875 6.367187 8.488282 18.253906 10.527344 27.082031 4.640625l15.167969-10.113281c12.6875-8.457031 28.949218-9.429688 42.554687-2.542969l10.445313 5.289063c11.25 5.695312 18.339843 17.230468 18.339843 29.835937v13.738281h68.257813zm0 0" fill="#c1dbdc"/><path d="m233.183594 398.152344h-68.265625c-3.769531 0-6.828125-3.054688-6.828125-6.828125v-13.742188c0-10.085937-5.59375-19.183593-14.59375-23.738281l-10.445313-5.289062c-11.386719-5.777344-25.066406-4.949219-35.6875 2.128906l-15.167969 10.113281c-11.84375 7.886719-27.796874 5.152344-36.328124-6.226563-4.785157-6.378906-6.476563-14.484374-4.644532-22.253906 1.828125-7.757812 6.96875-14.257812 14.105469-17.824218l18.511719-9.253907c.675781-.339843.882812-.90625.933594-1.320312.050781-.417969-.007813-1.011719-.585938-1.507813l-39.21875-33.625c-8.90625-7.628906-10.714844-20.738281-4.207031-30.5 7.101562-10.644531 21.539062-13.546875 32.191406-6.4375.011719.003906.585937.390625.59375.398438 3.179687 2.125 7.554687 1.253906 9.703125-1.964844 3.46875-5.207031 9.035156-8.546875 15.265625-9.167969 6.226563-.652343 12.34375 1.566407 16.777344 5.992188l5 5c7.175781 7.183593 9.636719 17.621093 6.433593 27.242187l-1.324218 3.964844c-1.605469 4.8125-1.238282 9.96875 1.035156 14.507812l2.59375 5.207032c5.546875 11.085937 14.945312 19.734375 26.460938 24.339844l11.632812 4.65625-4.230469-29.617188c-1.652343-11.550781-5.425781-22.550781-11.21875-32.699219l-15.140625-26.492187c-3.507812-6.140625-4.308594-13.246094-2.261718-20.011719 2.050781-6.769531 6.660156-12.234375 12.984374-15.402344 12.550782-6.277343 27.878907-1.164062 34.164063 11.394531l3.613281 7.234376 3.625-5.308594c4.40625-6.457032 6.738282-14.003906 6.738282-21.824219 0-10.675781-4.78125-20.613281-13.117188-27.28125-9.472656-7.585937-22.34375-9.492187-33.59375-4.964844l-28.800781 11.539063c-6.59375 2.667968-14.007813 2.308594-20.328125-.980469-6.320313-3.265625-10.886719-9.117187-12.535156-16.039063-2.992188-12.578124 4.371093-25.347656 16.761718-29.058593l27.738282-8.296875-13.519532-27.027344c-6.40625-12.828125-1.1875-28.476562 11.625-34.882812 12.824219-6.40625 28.46875-1.191407 34.882813 11.625l9.320312 18.640624c4.585938 9.175782 11.527344 17.035157 20.0625 22.726563l22.171875 14.789063c5.824219 3.878906 13.640625 3.105468 18.59375-1.839844 5.148438-5.15625 5.738282-13.433594 1.367188-19.253906l-5.132813-6.855469c-7.363281-9.8125-6.371093-23.765625 2.308594-32.445313 5.09375-5.09375 12.171875-7.675781 19.320313-7.214844 7.183593.511719 13.78125 4.105469 18.101562 9.871094l2.292969 3.054688c1.703125 2.273437 4.191406 3.679687 7.011719 3.964844 2.824218.269531 5.535156-.59375 7.65625-2.472657 2.152343-1.898437 3.382812-4.632812 3.382812-7.503906v-9.636719c0-13.171875 10.71875-23.890625 23.890625-23.890625 13.175781 0 23.894531 10.71875 23.894531 23.890625v10.402344h10.160156c13.21875 0 23.972657 10.753906 23.972657 23.972656s-10.753907 23.972656-23.972657 23.972656h-21.621093c-11.675781 0-22.171875 6.488282-27.398438 16.929688l-3.273437 6.546875.152344.050781c6.382812 2.128906 11.292968 6.996094 13.476562 13.359375 2.179688 6.367188 1.289062 13.222657-2.441406 18.8125-5.582032 8.367188-16.398438 11.722657-25.757813 8.003907l-18.566406-7.429688c-5.546875-2.226562-11.832031-.914062-16.015625 3.328125-2.769531 2.792969-4.292969 6.492187-4.292969 10.417969v4.941406c0 19.066406-5.492187 37.59375-15.882812 53.578125-12.117188 18.640625-16.390625 40.914063-12.03125 62.714844l2.589843 12.945312c2.789063-12.023437 10.015626-22.804687 20.152344-29.910156l2.804688-1.96875c10.03125-7.039063 16.023437-18.550781 16.023437-30.804687v-22.367188c0-13.171875 10.71875-23.894531 23.894531-23.894531 13.171876 0 23.890626 10.722656 23.890626 23.894531v14.941406c0 .179688 0 .71875.640624 1.039063.644532.332031 1.074219.007812 1.214844-.09375.199219-.152344.359375-.375.429688-.625l10.207031-35.722657c4.480469-15.683593 14.753906-28.785156 28.921875-36.886718l25.5-14.574219c5.574219-3.183594 12.054688-4.015625 18.253906-2.304687 6.195313 1.691406 11.355469 5.699218 14.53125 11.285156 3.207032 5.648437 3.996094 12.195312 2.222656 18.433594-1.773437 6.238281-5.886718 11.394531-11.582031 14.5l-31.1875 17.054687c-2.796875 1.527344-4.539062 4.457031-4.539062 7.644531 0 4.804688 3.914062 8.71875 8.71875 8.71875h15.179687c13.175782 0 23.894532 10.71875 23.894532 23.894532 0 13.171874-10.71875 23.894531-23.894532 23.894531h-25.996094c-15.394531 0-30.761718 3.746093-44.429687 10.832031l-31.683594 16.433594c-6.496093 3.367187-10.527343 10.007812-10.527343 17.320312 0 5.523438 4.5 10.027344 10.03125 10.027344h17.164062c7.414062 0 14.777344-2.441406 20.734375-6.875l20.757813-15.453125c9.714843-7.246094 23.523437-6.246094 32.105468 2.332031 5.125 5.128906 7.726563 12.214844 7.125 19.441406-.597656 7.226563-4.324218 13.785157-10.226562 17.992188l-21.5625 15.398438c-15.136719 10.820312-33.671875 15.648437-52.164063 13.632812l-33.097656-3.632812c-2.90625-.351563-5.746094.582031-7.941406 2.546874-2.195313 1.964844-3.40625 4.679688-3.40625 7.628907v15.253906c0 3.769531-3.058594 6.824219-6.828125 6.824219zm-61.441406-13.65625h54.613281v-8.425782c0-6.789062 2.898437-13.273437 7.949219-17.792968 5.050781-4.527344 11.824218-6.675782 18.546874-5.953125l33.09375 3.632812c15.160157 1.660157 30.335938-2.308593 42.742188-11.167969l21.5625-15.398437c2.628906-1.878906 4.289062-4.800781 4.554688-8.011719.265624-3.222656-.890626-6.375-3.171876-8.660156-3.8125-3.8125-9.957031-4.253906-14.300781-1.039062l-20.761719 15.460937c-8.296874 6.171875-18.554687 9.570313-28.886718 9.570313h-17.164063c-13.058593 0-23.683593-10.621094-23.683593-23.679688 0-12.433594 6.859374-23.71875 17.894531-29.4375l31.683593-16.433594c15.605469-8.09375 33.144532-12.367187 50.71875-12.367187h25.996094c5.648438 0 10.242188-4.59375 10.242188-10.242188 0-5.644531-4.59375-10.238281-10.242188-10.238281h-15.171875c-12.339843 0-22.375-10.035156-22.375-22.371094 0-8.183594 4.460938-15.707031 11.640625-19.628906l31.191406-17.050781c2.457032-1.339844 4.234376-3.5625 5-6.253907.761719-2.695312.421876-5.519531-.960937-7.953124-1.367187-2.40625-3.59375-4.132813-6.265625-4.867188-2.667969-.75-5.46875-.390625-7.875.992188l-25.5 14.574218c-11.054688 6.320313-19.070312 16.539063-22.570312 28.777344l-10.207032 35.726562c-.894531 3.136719-2.835937 5.929688-5.464844 7.867188-4.539062 3.332031-10.46875 3.820312-15.472656 1.28125-5.011718-2.535156-8.125-7.601562-8.125-13.21875v-14.941406c0-5.648438-4.59375-10.242188-10.242187-10.242188-5.644531 0-10.238281 4.59375-10.238281 10.242188v22.367187c0 16.699219-8.164063 32.390625-21.835938 41.980469l-2.804688 1.964844c-8.007812 5.613281-13.515624 14.367187-15.125 24.011718l-5.574218 33.433594c-.539063 3.253906-3.328125 5.652344-6.625 5.707032-3.257813.148437-6.152344-2.257813-6.804688-5.484376l-9.839844-49.195312c-5.0625-25.320312-.101562-51.1875 13.972657-72.832031 8.945312-13.765625 13.675781-29.722657 13.675781-46.140625v-4.941406c0-7.554688 2.925781-14.667969 8.242188-20.027344 8.058593-8.144532 20.136718-10.644532 30.785156-6.398438l18.570312 7.425782c3.390625 1.367187 7.308594.140624 9.328125-2.890626 1.351563-2.027343 1.671875-4.507812.882813-6.8125-.789063-2.300781-2.570313-4.066406-4.878906-4.839843l-7.617188-2.539063c-1.878906-.621094-3.390625-2.035156-4.148438-3.863281-.757812-1.828125-.683593-3.890625.199219-5.664063l6.792969-13.585937c7.554688-15.09375 22.730469-24.476563 39.609375-24.476563h21.621094c5.691406 0 10.320312-4.625 10.320312-10.320312 0-5.691406-4.628906-10.320312-10.320312-10.320312h-16.988281c-3.769532 0-6.824219-3.050782-6.824219-6.824219v-17.230469c0-5.648438-4.59375-10.238281-10.242188-10.238281-5.648437 0-10.238281 4.589843-10.238281 10.238281v9.632812c0 6.789063-2.914062 13.25-7.992188 17.734376-4.929687 4.367187-11.546874 6.496093-18.082031 5.828124-6.566406-.667968-12.59375-4.074218-16.550781-9.351562l-2.296875-3.054688c-1.972656-2.632812-4.867187-4.214843-8.148437-4.445312-3.238282-.21875-6.402344.953125-8.699219 3.246094-3.90625 3.90625-4.351563 10.1875-1.035157 14.601562l5.132813 6.851563c8.421875 11.226562 7.289063 27.175781-2.640625 37.101562-9.527344 9.539063-24.59375 11.019531-35.816406 3.546875l-22.171875-14.789062c-10.511719-7.003906-19.054688-16.683594-24.703125-27.980469l-9.320313-18.640625c-3.042969-6.085938-10.488281-8.570312-16.558593-5.519531-6.085938 3.042969-8.566407 10.476562-5.519532 16.5625l17.144532 34.292969c.898437 1.808593.960937 3.914062.160156 5.757812-.800782 1.855469-2.375 3.253906-4.308594 3.835938l-35.515625 10.625c-5.460937 1.640624-8.710937 7.269531-7.390625 12.820312.726562 3.0625 2.742188 5.636719 5.527344 7.082031 2.789062 1.4375 6.058594 1.59375 8.964844.433594l28.808593-11.546875c15.820313-6.355469 33.90625-3.667969 47.203125 6.972656 11.589844 9.273438 18.234375 23.105469 18.234375 37.945313 0 10.574219-3.152343 20.78125-9.113281 29.519531l-10.175781 14.898438c-1.363281 2-3.597657 3.082031-6.101563 2.96875-2.410156-.167969-4.558594-1.59375-5.640625-3.761719l-8.8125-17.617188c-2.90625-5.820312-10.003906-8.203125-15.84375-5.289062-2.933593 1.464843-5.070312 4-6.019531 7.140625s-.582031 6.4375 1.042969 9.285156l15.144531 26.492188c6.652344 11.65625 10.988281 24.28125 12.878906 37.542968l5.902344 41.296875c.347656 2.414063-.621094 4.828125-2.535156 6.335938-1.921875 1.503906-4.492188 1.878906-6.753906.972656l-22.601563-9.035156c-14.625-5.859375-26.554687-16.832031-33.601563-30.917969l-2.597656-5.207031c-3.898437-7.800781-4.527344-16.65625-1.769531-24.925781l1.320313-3.96875c1.5625-4.6875.359374-9.765626-3.136719-13.265626l-4.996094-5c-1.523437-1.527343-3.601563-2.300781-5.777344-2.058593-2.144531.210937-4.0625 1.359375-5.253906 3.152343-6.320313 9.480469-19.171875 12.058594-28.664063 5.734376-.007812-.007813-.582031-.394532-.59375-.402344-4.347656-2.890625-10.304687-1.710938-13.230468 2.675781-2.679688 4.019531-1.933594 9.417969 1.734375 12.558594l39.21875 33.625c3.917969 3.355469 5.878906 8.414062 5.25 13.535156-.628907 5.125-3.757813 9.558594-8.371094 11.871094l-18.519531 9.253906c-3.5 1.753906-6.023438 4.941406-6.921875 8.753906-.898438 3.808594-.066407 7.792969 2.28125 10.925781 4.183593 5.585938 12.019531 6.929688 17.835937 3.054688l15.164063-10.113281c14.710937-9.808594 33.648437-10.941407 49.429687-2.949219l10.441406 5.28125c13.621094 6.898438 22.082032 20.660156 22.082032 35.925781v6.914063zm0 0" fill="#4c241d"/></svg>