<?xml version="1.0" encoding="iso-8859-1"?>
<!-- Generator: Adobe Illustrator 22.1.0, SVG Export Plug-In . SVG Version: 6.00 Build 0)  -->
<svg xmlns="http://www.w3.org/2000/svg" xmlns:xlink="http://www.w3.org/1999/xlink" version="1.1" id="Layer_1_1_" x="0px" y="0px" viewBox="0 0 64 64" style="enable-background:new 0 0 64 64;" xml:space="preserve" width="512" height="512">
<g>
	<g>
		<path style="fill:#B4DD7F;" d="M14,23v-0.48c0-0.98-0.36-1.92-1.01-2.66L6.54,12.6C6.19,12.21,6,11.71,6,11.19v-0.07    C6,9.95,6.95,9,8.12,9c0.56,0,1.1,0.22,1.5,0.62l3.97,3.97c0.26,0.26,0.62,0.41,1,0.41c0.78,0,1.41-0.63,1.41-1.41V4    c0-1.1,0.9-2,2-2c0.55,0,1.05,0.22,1.41,0.59C19.78,2.95,20,3.45,20,4v14.59c0,0.78,0.63,1.41,1.41,1.41c0.38,0,0.74-0.15,1-0.41    l2.98-2.98c0.39-0.39,0.92-0.61,1.47-0.61h0.07c1.14,0,2.07,0.93,2.07,2.07c0,0.59-0.25,1.15-0.69,1.55l-7.64,6.78    C20.24,26.78,20,27.33,20,27.9v3.69c0,0.78,0.63,1.41,1.41,1.41c0.38,0,0.74-0.15,1-0.41l1.97-1.97c0.4-0.4,0.94-0.62,1.5-0.62    c0.58,0,1.12,0.24,1.5,0.62C27.76,31,28,31.54,28,32.12c0,0.56-0.22,1.1-0.62,1.5l-5.09,5.09c-0.18,0.18-0.29,0.44-0.29,0.7V42v4    v4.63C20.72,50.22,19.37,50,18,50c-2.05,0-4.04,0.48-5.82,1.38L12,51v-7.23c0-0.49-0.19-0.97-0.52-1.34l-8.93-9.82    C2.2,32.22,2,31.71,2,31.18v-0.06C2,29.95,2.95,29,4.12,29c0.56,0,1.1,0.22,1.5,0.62l5.97,5.97c0.26,0.26,0.62,0.41,1,0.41    c0.78,0,1.41-0.63,1.41-1.41V27V23z"/>
		<path style="fill:#969FAA;" d="M61,62H33l-2-3l-2.12-3.18l6.17-4.77c1.91,1.89,4.5,2.95,7.19,2.95H43h2c2.66,0,5.3,0.33,7.88,0.97    l3.77,0.94L61,62z"/>
		<path style="fill:#969FAA;" d="M20,55c3.26,0,6.45,0.96,9.16,2.77L31,59l2,3H3l4.12-6.18c0.77-1.15,1.7-2.16,2.76-2.99L10,53    c1.96,1.3,4.25,2,6.61,2H18H20z"/>
		<path style="fill:#CCD1D9;" d="M56.65,55.91l-3.77-0.94C50.3,54.33,47.66,54,45,54h-2h-0.76c-2.69,0-5.28-1.06-7.19-2.95    l0.16-0.12c2.46-1.9,5.47-2.93,8.58-2.93c2.26,0,4.45,0.55,6.41,1.56c1.96,1,3.68,2.47,4.99,4.31L56.65,55.91z"/>
		<path style="fill:#CCD1D9;" d="M22,50.63c0.75,0.24,1.48,0.55,2.17,0.92c1.87,1,3.5,2.45,4.71,4.27L31,59l-1.84-1.23    C26.45,55.96,23.26,55,20,55h-2h-1.39c-2.36,0-4.65-0.7-6.61-2l-0.12-0.17c0.71-0.57,1.48-1.06,2.3-1.45    C13.96,50.48,15.95,50,18,50C19.37,50,20.72,50.22,22,50.63z"/>
		<circle style="fill:#69D6F4;" cx="60" cy="18" r="2"/>
		<circle style="fill:#69D6F4;" cx="32" cy="12" r="2"/>
		<circle style="fill:#69D6F4;" cx="30" cy="47" r="2"/>
	</g>
	<g>
		<path d="M32,15c1.654,0,3-1.346,3-3s-1.346-3-3-3s-3,1.346-3,3S30.346,15,32,15z M32,11c0.552,0,1,0.449,1,1s-0.448,1-1,1    s-1-0.449-1-1S31.448,11,32,11z"/>
		<rect x="31" y="1" width="2" height="2"/>
		<rect x="31" y="5" width="2" height="2"/>
		<rect x="1" y="16" width="2" height="2"/>
		<rect x="1" y="20" width="2" height="2"/>
		<path d="M27,47c0,1.654,1.346,3,3,3s3-1.346,3-3s-1.346-3-3-3S27,45.346,27,47z M30,46c0.552,0,1,0.449,1,1s-0.448,1-1,1    s-1-0.449-1-1S29.448,46,30,46z"/>
		<rect x="29" y="36" width="2" height="2"/>
		<rect x="29" y="40" width="2" height="2"/>
		<path d="M60,21c1.654,0,3-1.346,3-3s-1.346-3-3-3s-3,1.346-3,3S58.346,21,60,21z M60,17c0.552,0,1,0.449,1,1s-0.448,1-1,1    s-1-0.449-1-1S59.448,17,60,17z"/>
		<rect x="59" y="7" width="2" height="2"/>
		<rect x="59" y="11" width="2" height="2"/>
		<path d="M50.64,48.66l1.519-1.709c0.6-0.675,1.141-1.39,1.653-2.123l0.52-0.13C56.186,44.235,58.092,44,60,44v-2    c-1.587,0-3.173,0.152-4.733,0.449c0.871-1.635,1.545-3.363,2.002-5.158c1.338-1.081,2.994-1.673,4.732-1.673v-2    c-1.485,0-2.922,0.346-4.221,0.989C57.91,33.61,58,32.606,58,31.59c0-0.109-0.012-0.218-0.013-0.327l0.295-0.59    c0.978-1.955,2.455-3.628,4.272-4.84l-1.109-1.664c-1.47,0.98-2.732,2.233-3.755,3.663c-0.198-1.202-0.489-2.389-0.877-3.552    l-1.865-5.595l-1.896,0.633l1.864,5.594c0.193,0.58,0.356,1.166,0.498,1.757c-0.961-0.859-2.032-1.595-3.191-2.175l-0.775-0.388    l-0.895,1.789l0.775,0.388c1.845,0.923,3.426,2.303,4.619,3.984C55.974,30.706,56,31.147,56,31.59    c0,1.155-0.109,2.298-0.294,3.424c-1.243-2.095-3.055-3.806-5.259-4.908l-0.895,1.789c2.359,1.179,4.199,3.179,5.18,5.629    l0.224,0.56c-0.405,1.252-0.926,2.462-1.558,3.62c-0.548-1.654-1.453-3.172-2.691-4.41l-1.414,1.414    c1.181,1.181,2.019,2.661,2.423,4.28l0.252,1.005c-0.407,0.561-0.838,1.107-1.302,1.629l-1.975,2.222    c-1.256-0.435-2.572-0.695-3.919-0.785c-0.241-0.805-0.478-1.612-0.696-2.423l0.32-1.916c0.37-2.22,1.19-4.294,2.438-6.167    l-1.664-1.109c-0.961,1.442-1.679,2.998-2.182,4.632c-0.599-2.804-1.073-5.632-1.4-8.479c1.102-1.222,2.538-2.099,4.154-2.503    l0.502-0.125l-0.484-1.94l-0.502,0.125c-1.443,0.361-2.769,1.03-3.911,1.938c-0.115-1.337-0.208-2.676-0.263-4.019l0.201-0.402    c0.978-1.955,2.455-3.628,4.272-4.84l-1.109-1.664c-1.329,0.886-2.476,2.003-3.445,3.262c0-0.01-0.001-0.021-0.001-0.031v-1.156    c0-2.469,0.961-4.79,2.707-6.536l-1.414-1.414c-1.531,1.532-2.558,3.431-3.016,5.495c-1.018-1.411-2.267-2.65-3.722-3.62    l-1.109,1.664c1.817,1.212,3.295,2.886,4.272,4.84L39,21.236v0.162c0,0.623,0.022,1.244,0.035,1.866    c-1.065-0.988-2.333-1.751-3.718-2.213l-0.633,1.897c1.725,0.575,3.229,1.725,4.238,3.238l0.239,0.357    c0.078,1.393,0.185,2.783,0.327,4.17c-1.483-1.452-3.186-2.681-5.04-3.608l-0.895,1.789c2.479,1.239,4.668,3.066,6.33,5.283    l0.031,0.041c0.203,1.433,0.431,2.862,0.702,4.284c-0.85-0.627-1.748-1.187-2.698-1.662l-1.47-0.735l-0.895,1.789l1.47,0.735    c1.577,0.788,3.009,1.82,4.258,3.066c0.409,1.796,0.887,3.578,1.405,5.351c-2.923,0.218-5.759,1.293-8.084,3.092l-5.514,4.264    c-1.598-2.045-3.713-3.571-6.088-4.473V39.414l5.086-5.086C28.676,33.739,29,32.955,29,32.121C29,30.4,27.6,29,25.879,29    c-0.822,0-1.626,0.333-2.207,0.914l-1.966,1.965C21.472,32.116,21,31.924,21,31.586v-3.688c0-0.286,0.122-0.558,0.335-0.747    l7.634-6.786C29.624,19.783,30,18.946,30,18.07c0-1.693-1.377-3.07-3.143-3.07c-0.819,0-1.59,0.319-2.171,0.899l-2.98,2.98    C21.472,19.116,21,18.923,21,18.586V4c0-1.654-1.346-3-3-3s-3,1.346-3,3v8.586c0,0.338-0.469,0.531-0.707,0.293l-3.965-3.965    C9.747,8.333,8.943,8,8.121,8C6.4,8,5,9.4,5,11.193c0,0.766,0.28,1.502,0.789,2.074l6.453,7.26C12.73,21.078,13,21.785,13,22.521    v12.065c0,0.338-0.47,0.532-0.707,0.293l-5.965-5.965C5.747,28.333,4.943,28,4.121,28C2.4,28,1,29.4,1,31.18    c0,0.779,0.288,1.525,0.812,2.1l8.929,9.821c0.167,0.185,0.26,0.423,0.26,0.673v7.108c-1.859,1.067-3.486,2.545-4.715,4.388    L1.132,63h61.812l-6.938-9.712C54.596,51.314,52.745,49.74,50.64,48.66z M12.22,41.755l-8.929-9.821    C3.104,31.728,3,31.459,3,31.121C3,30.503,3.503,30,4.121,30c0.295,0,0.584,0.12,0.793,0.328l5.964,5.964    C11.327,36.742,11.949,37,12.586,37C13.917,37,15,35.917,15,34.586V28h2v-2h-2v-2h4v-2h-4.047    c-0.109-1.035-0.518-2.017-1.216-2.801l-6.453-7.26C7.101,11.733,7,11.468,7,11.121C7,10.503,7.503,10,8.121,10    c0.295,0,0.584,0.12,0.793,0.328l3.964,3.964C13.327,14.742,13.949,15,14.586,15C15.917,15,17,13.917,17,12.586V4    c0-0.551,0.448-1,1-1s1,0.449,1,1v14.586C19,19.917,20.083,21,21.414,21c0.637,0,1.259-0.258,1.707-0.707l2.979-2.979    C26.303,17.111,26.572,17,26.93,17c0.59,0,1.07,0.48,1.07,1.07c0,0.305-0.131,0.597-0.359,0.8l-7.634,6.786    C19.367,26.225,19,27.042,19,27.898v3.688C19,32.917,20.083,34,21.414,34c0.637,0,1.259-0.258,1.707-0.707l1.965-1.965    C25.295,31.12,25.584,31,25.879,31C26.497,31,27,31.503,27,32.121c0,0.3-0.116,0.581-0.328,0.793L21.586,38    C21.208,38.378,21,38.88,21,39.414V41h-4v2h4v2h-2v2h2v2.332C20.025,49.12,19.022,49,18,49c-1.737,0-3.426,0.323-5,0.92v-6.146    C13,43.025,12.723,42.308,12.22,41.755z M4.868,61l3.081-4.621c0.562-0.844,1.22-1.602,1.953-2.266    C11.925,55.344,14.229,56,16.605,56H18v-2h-1.395c-1.728,0-3.41-0.411-4.934-1.187C13.547,51.656,15.722,51,18,51    c3.765,0,7.262,1.755,9.541,4.709C25.196,54.587,22.63,54,20,54v2c3.073,0,6.049,0.901,8.605,2.605l1.674,1.116L31.132,61H4.868z     M33.535,61l-3.304-4.955l4.774-3.692C37.029,54.063,39.562,55,42.242,55H43v-2h-0.758c-2.041,0-3.974-0.666-5.572-1.88    c2.107-1.372,4.597-2.12,7.117-2.12c4.121,0,8.006,1.974,10.453,5.279L53.123,54c-2.653-0.664-5.386-1-8.123-1v2    c2.573,0,5.144,0.316,7.639,0.94l3.414,0.854L59.057,61H33.535z"/>
		<rect x="10" y="57" width="2" height="2"/>
		<rect x="21" y="58" width="2" height="2"/>
		<rect x="34" y="55" width="2" height="2"/>
		<rect x="49" y="57" width="2" height="2"/>
		<rect x="40" y="57" width="2" height="2"/>
	</g>
</g>
</svg>
